<mxfile host="Electron" modified="2024-01-20T15:14:58.723Z" agent="Mozilla/5.0 (Windows NT 10.0; Win64; x64) AppleWebKit/537.36 (KHTML, like Gecko) draw.io/21.5.0 Chrome/112.0.5615.204 Electron/24.5.1 Safari/537.36" etag="l_6LwPj-bdwtZK92wvlz" version="21.5.0" type="device">
  <diagram name="Seite-1" id="c4nA9Ww3nDtVfJUf-KUd">
    <mxGraphModel dx="1098" dy="820" grid="1" gridSize="10" guides="1" tooltips="1" connect="1" arrows="1" fold="1" page="1" pageScale="1" pageWidth="827" pageHeight="1169" math="0" shadow="0">
      <root>
        <mxCell id="0" />
        <mxCell id="1" parent="0" />
        <mxCell id="B5yTp8oYeB5gWR5obqd4-1" value="" style="triangle;whiteSpace=wrap;html=1;rotation=-90;" vertex="1" parent="1">
          <mxGeometry x="405" y="205" width="210" height="280" as="geometry" />
        </mxCell>
        <mxCell id="B5yTp8oYeB5gWR5obqd4-2" value="&lt;b&gt;&lt;font style=&quot;font-size: 16px;&quot;&gt;VerfÃ¼gbarkeit&lt;/font&gt;&lt;/b&gt;" style="text;html=1;strokeColor=none;fillColor=none;align=center;verticalAlign=middle;whiteSpace=wrap;rounded=0;" vertex="1" parent="1">
          <mxGeometry x="240" y="440" width="130" height="70" as="geometry" />
        </mxCell>
        <mxCell id="B5yTp8oYeB5gWR5obqd4-3" value="&lt;b&gt;&lt;font style=&quot;font-size: 16px;&quot;&gt;Partitions-&lt;br&gt;toleranz&lt;br&gt;&lt;/font&gt;&lt;/b&gt;" style="text;html=1;strokeColor=none;fillColor=none;align=center;verticalAlign=middle;whiteSpace=wrap;rounded=0;" vertex="1" parent="1">
          <mxGeometry x="640" y="440" width="130" height="70" as="geometry" />
        </mxCell>
        <mxCell id="B5yTp8oYeB5gWR5obqd4-4" value="&lt;b&gt;&lt;font style=&quot;font-size: 16px;&quot;&gt;Konsistenz&lt;/font&gt;&lt;/b&gt;" style="text;html=1;strokeColor=none;fillColor=none;align=center;verticalAlign=middle;whiteSpace=wrap;rounded=0;" vertex="1" parent="1">
          <mxGeometry x="445" y="170" width="130" height="70" as="geometry" />
        </mxCell>
      </root>
    </mxGraphModel>
  </diagram>
</mxfile>
